<svg width="83" height="24" viewBox="0 0 83 24" fill="none" xmlns="http://www.w3.org/2000/svg">
<path d="M33.1547 0.20103C32.7657 0.20103 32.5999 0.435445 32.4512 0.770376C23.4383 21.7899 22.6768 23.4558 22.6768 23.4558H27.7832L28.851 20.819H36.5477L37.6154 23.4558H43.624C43.624 23.4558 43.111 22.3761 33.8496 0.770376C33.7091 0.435445 33.5351 0.20103 33.1462 0.20103M30.4648 16.7925L32.6826 11.2841L34.909 16.7925H30.4648ZM19.681 0.678122C19.9623 0.393628 20.2435 0.192413 20.6906 0.192413V23.4475H15.8905V12.3307L10.3453 17.9228L4.80042 12.3307V23.4475H0V0.192413C0.438854 0.192413 0.728645 0.393628 1.00992 0.678122L10.354 10.0955L19.6977 0.678122H19.681ZM58.778 12.8245C60.5489 11.7612 61.8814 9.89465 61.8814 7.22418C61.8814 5.12305 61.0539 3.39867 59.6055 2.22641C58.1491 1.03782 56.4523 0.401523 52.9929 0.401523H45.594V23.4389H51.0561V14.8585H52.7443C54.5902 14.8585 55.5169 15.5616 56.2865 17.4367C56.9406 19.0189 57.4041 20.8941 57.9999 23.4389H64.0911C63.2305 20.8271 62.792 19.5881 62.1382 17.7465C61.2523 15.2352 60.1684 13.678 58.7447 12.8161M55.2525 9.98691C54.5984 10.4972 53.7377 10.6649 52.2068 10.6649H51.0481C51.0481 10.6649 51.0396 4.52894 51.0481 4.52894H52.2068C53.8124 4.52894 54.6065 4.70484 55.2525 5.19826C55.9887 5.76761 56.3199 6.61319 56.3199 7.59267C56.3199 8.66406 55.9474 9.45077 55.2525 9.99499M82.3734 19.5298C81.0657 22.5686 77.8711 24 74.2378 24C70.6049 24 67.3933 22.7777 65.3161 20.2332L68.4612 16.9099C69.8848 18.7097 71.8214 19.7308 73.9899 19.6721C75.5542 19.6389 76.5057 19.0277 76.8947 18.1486C77.3336 17.1357 76.9194 16.1984 76.1831 15.6122C74.1221 13.9797 69.3552 13.8878 67.1042 10.7067C65.937 9.05768 65.6141 6.78048 66.5661 4.58745C67.7911 1.77446 70.5306 0 74.172 0C77.2839 0 80.2469 1.19685 82.0923 3.18077L78.9472 6.49579C77.7721 5.08948 76.0837 4.2272 74.1967 4.2272C72.8309 4.2272 71.8961 4.84699 71.6145 5.78429C71.3912 6.54623 71.6311 7.34138 72.3264 7.88542C74.0893 9.26679 78.5415 9.67692 80.9917 12.0207C83.1104 14.0468 83.5159 16.8762 82.3821 19.538" fill="white"/>
</svg>
